<svg width="243" height="86" viewBox="0 0 243 86" fill="none" xmlns="http://www.w3.org/2000/svg">
<rect width="243" height="86" fill="#2D383C"/>
<path d="M36.248 19.908H49.752L60.44 66.5H47.192L46.488 63.492H40.536L42.264 53.572H44.184L36.248 19.908ZM36.696 66.5H23.32L33.944 24.196L39.896 49.156L36.696 66.5ZM76.11 28.868L63.63 58.18V20.42H76.11V28.868ZM76.366 66.5H63.63L82.958 20.42H95.758L76.366 66.5ZM81.358 62.852L88.654 45.764L95.95 66.5H82.51L81.358 62.852ZM113.233 41.348C113.233 40.1107 112.806 39.2787 111.953 38.852C111.099 38.3827 110.011 38.148 108.689 38.148C107.067 38.148 105.51 38.2973 104.017 38.596C102.523 38.8947 101.03 39.3213 99.5365 39.876V30.916C101.457 30.4893 103.441 30.1053 105.489 29.764C107.579 29.38 109.67 29.188 111.76 29.188C114.107 29.188 116.262 29.4867 118.225 30.084C120.187 30.6387 121.766 31.6627 122.961 33.156C124.155 34.6493 124.753 36.7827 124.753 39.556V66.5H114.769L113.233 60.996V41.348ZM110.033 58.564V66.436C108.923 66.9053 107.729 67.14 106.449 67.14C104.742 67.14 103.142 66.7133 101.649 65.86C100.155 64.964 98.9392 63.684 98.0005 62.02C97.0618 60.356 96.5925 58.3507 96.5925 56.004C96.5925 52.42 97.8298 49.6893 100.305 47.812C102.822 45.892 106.065 44.9107 110.033 44.868V51.652C109.35 51.9507 108.795 52.3773 108.369 52.932C107.985 53.444 107.793 54.1053 107.793 54.916C107.793 55.8973 108.006 56.708 108.433 57.348C108.859 57.9453 109.393 58.3507 110.033 58.564ZM142.552 42.436L136.728 51.652L134.296 50.052C132.291 48.7293 130.84 47.3 129.944 45.764C129.048 44.228 128.6 42.2227 128.6 39.748C128.6 36.2067 129.645 33.5827 131.736 31.876C133.827 30.1267 137.261 29.2307 142.04 29.188C143.832 29.188 145.475 29.2733 146.968 29.444C148.504 29.572 149.72 29.7213 150.616 29.892C151.555 30.0627 152.024 30.148 152.024 30.148L151.064 38.66C151.064 38.66 150.744 38.6173 150.104 38.532C149.464 38.4467 148.632 38.3613 147.608 38.276C146.627 38.148 145.603 38.084 144.536 38.084C143 38.084 141.891 38.212 141.208 38.468C140.525 38.724 140.184 39.2147 140.184 39.94C140.184 40.3667 140.312 40.7293 140.568 41.028C140.824 41.284 141.229 41.5827 141.784 41.924L142.552 42.436ZM139.416 53.38L145.304 44.228L147.416 45.572C149.464 46.8947 150.936 48.324 151.832 49.86C152.728 51.3533 153.176 53.2947 153.176 55.684C153.176 59.4813 152.088 62.34 149.912 64.26C147.736 66.1373 144.173 67.0973 139.224 67.14C137.048 67.14 135.043 67.012 133.208 66.756C131.416 66.5427 129.773 66.244 128.28 65.86L129.24 57.156C129.24 57.156 130.029 57.284 131.608 57.54C133.187 57.7533 135.277 57.86 137.88 57.86C140.227 57.86 141.4 57.156 141.4 55.748C141.4 55.0227 140.867 54.3187 139.8 53.636L139.416 53.38ZM168.518 66.5H156.998V19.844L168.518 18.18V66.5ZM171.718 38.212V29.892C173.126 29.4227 174.491 29.188 175.814 29.188C178.758 29.188 181.19 30.1053 183.11 31.94C185.072 33.7747 186.054 36.5267 186.054 40.196V66.5H174.534V42.052C174.534 39.748 173.595 38.468 171.718 38.212ZM206.233 41.348C206.233 40.1107 205.806 39.2787 204.953 38.852C204.099 38.3827 203.011 38.148 201.689 38.148C200.067 38.148 198.51 38.2973 197.017 38.596C195.523 38.8947 194.03 39.3213 192.536 39.876V30.916C194.457 30.4893 196.441 30.1053 198.489 29.764C200.579 29.38 202.67 29.188 204.76 29.188C207.107 29.188 209.262 29.4867 211.225 30.084C213.187 30.6387 214.766 31.6627 215.961 33.156C217.155 34.6493 217.753 36.7827 217.753 39.556V66.5H207.769L206.233 60.996V41.348ZM203.033 58.564V66.436C201.923 66.9053 200.729 67.14 199.449 67.14C197.742 67.14 196.142 66.7133 194.649 65.86C193.155 64.964 191.939 63.684 191.001 62.02C190.062 60.356 189.593 58.3507 189.593 56.004C189.593 52.42 190.83 49.6893 193.305 47.812C195.822 45.892 199.065 44.9107 203.033 44.868V51.652C202.35 51.9507 201.795 52.3773 201.369 52.932C200.985 53.444 200.793 54.1053 200.793 54.916C200.793 55.8973 201.006 56.708 201.433 57.348C201.859 57.9453 202.393 58.3507 203.033 58.564Z" fill="#F5F5F5"/>
</svg>
